PathFileType	4	(X/Y/Z)	60_2_3_p0_0-406_filt_butterworth.trc
DataRate	CameraRate	NumFrames	NumMarkers	Units	OrigDataRate	OrigDataStartFrame	OrigNumFrames
59.0	59.0	4	27	m	59.0	0	406
Frame#	Time	RHip			RKnee			RAnkle			RBigToe			RSmallToe			RHeel			LHip			LKnee			LAnkle			LBigToe			LSmallToe			LHeel			Neck			Head			Nose			RShoulder			RElbow			RWrist			RThumb			RIndex			RPinky			LShoulder			LElbow			LWrist			LThumb			LIndex			LPinky			
		X1	Y1	Z1	X2	Y2	Z2	X3	Y3	Z3	X4	Y4	Z4	X5	Y5	Z5	X6	Y6	Z6	X7	Y7	Z7	X8	Y8	Z8	X9	Y9	Z9	X10	Y10	Z10	X11	Y11	Z11	X12	Y12	Z12	X13	Y13	Z13	X14	Y14	Z14	X15	Y15	Z15	X16	Y16	Z16	X17	Y17	Z17	X18	Y18	Z18	X19	Y19	Z19	X20	Y20	Z20	X21	Y21	Z21	X22	Y22	Z22	X23	Y23	Z23	X24	Y24	Z24	X25	Y25	Z25	X26	Y26	Z26	X27	Y27	Z27	
0	0.0	0.3225695407532205	0.6615065504697266	0.7096492922594888	0.3169859613859949	0.1891187641400681	0.7460619609629521	0.31722258442115475	-0.21257682151298835	0.7523165337161956	0.2913673646034449	-0.24484355472505046	0.5902794356091129	0.3521970652595689	-0.2242535123160551	0.5831995538761375	0.28501779362254165	-0.3028390897774825	0.8501978624836337	0.09668748895863641	0.6466605104821144	0.7423283980553512	0.09782243181992464	0.19248621338775082	0.7577783774610239	0.09866805039015877	-0.19394173338070914	0.7649854994909281	0.10591458298516641	-0.19988749303311573	0.568611208828622	0.054677731587535146	-0.22986523600414172	0.6356788360201314	0.10608963138723784	-0.25774098379118554	0.8291926427424053	0.2287304911581668	1.2203105363355131	0.7619787744131952	0.24944794890606667	1.4595272392165486	0.7056164809533634	0.23402672228206542	1.3419889860679932	0.6275631631734425	0.3933984365612068	1.1445717311221932	0.7223800671995555	0.4516336558492625	0.8827963767374467	0.6500310176667188	0.29775489984189746	0.7115951777705879	0.5530961355520085	0.1474704496984656	0.6523164730738007	0.5665224726262542	0.13598331124073879	0.6217886073718565	0.574745610096685	0.19845009401673744	0.6178784126798531	0.5458968773879944	0.06764382781457332	1.1538896788750657	0.7295976231152845	0.017383729429641302	0.8890575717401588	0.657810506128383	0.12100591312060578	0.7257943951631266	0.5461032157854571	0.19960505405393952	0.6699007401369294	0.5492387701228361	0.20077966459169735	0.6296207794163159	0.5579405033060711	0.18579956707563486	0.6192318316175387	0.5614929866739813	
1	0.0169491525423728	0.3225270250328388	0.6586935249364066	0.7109292244924144	0.3174165696417574	0.18995961477113396	0.7446246258344189	0.31759239028658925	-0.21054520527676127	0.7503598391010704	0.29176760676106767	-0.2444316562784792	0.5931636072820422	0.3554178707282632	-0.22844483748744762	0.592301317456742	0.2857375566121289	-0.3040825581666467	0.8522716115687549	0.09671724668621867	0.6460505569587965	0.7423289808165623	0.09759838871952851	0.1922046484501573	0.757867177780764	0.09896894185524244	-0.19336082484971628	0.7649236181544552	0.10586288722935795	-0.20010947043790758	0.5687623302567868	0.05463817504914081	-0.23005725741301436	0.6356758376844382	0.10710702197531839	-0.25526937354996376	0.8259252365037023	0.22872187244942555	1.2203192813867287	0.7620114184798501	0.24946955586046435	1.4596051114583184	0.7056627685937193	0.23389148727408768	1.3420456977315982	0.627415306250518	0.39321160905611174	1.1461652012208732	0.7220813700521271	0.45089898514209914	0.8849841424633615	0.6483553752026207	0.2980081920285172	0.711130982191693	0.5530478999388773	0.15419823359101692	0.6532356759070425	0.5591038774899428	0.14365362929410508	0.624550060607573	0.5661879300045529	0.19828148776475837	0.6191561813352724	0.5457294760228981	0.06811335172544497	1.1536483719119575	0.7316652981710865	0.017300958139344066	0.8885043741120944	0.6602217801764885	0.12091075582363355	0.7250468508116696	0.5459005616927757	0.2018052764968841	0.671293330532154	0.5439045349949483	0.20225571909330467	0.6317946839731894	0.5518714444000353	0.18761051007356733	0.6204412673833265	0.5627372114899869	
2	0.0338983050847457	0.32241358507880497	0.6561318244507344	0.7122552292627766	0.31770147795025594	0.19049536471002979	0.7437107588580358	0.31784343340151144	-0.2088144923804042	0.7487355172421037	0.29135076001397137	-0.2435954802577239	0.5940184881884862	0.35722526368076163	-0.22984160960605718	0.5967658478058505	0.2863000602458767	-0.305049801408836	0.8538923110499523	0.0967363142072164	0.6455980316446649	0.7423262400641997	0.09740693245740532	0.19195282367000233	0.7579383680030445	0.0991872465953333	-0.19301119426568764	0.7648715886001237	0.10584666324813592	-0.20024070140929404	0.5688968244560839	0.05462805724460032	-0.2301661448968539	0.6357064629345638	0.10800421614757544	-0.2532332502150559	0.8232213358510698	0.22871411059552835	1.2203266740668084	0.7620273506828498	0.2494808365316161	1.4596483014899508	0.7056904186303867	0.23382192568826393	1.3420631896211175	0.6273525860821444	0.3930779958006482	1.1471735302536725	0.7218927513984688	0.4509718400880781	0.8859262638001808	0.6487227441783112	0.29804719480179287	0.7109748787498633	0.5529931199749083	0.1589347282036979	0.655814082811832	0.5524437502242487	0.14874483500158203	0.626947766818381	0.5602953108257759	0.1981924567304524	0.6202430166245412	0.5456275503531309	0.06824997684847063	1.15359353685547	0.7322609927291661	0.017048925865859543	0.8883451069607953	0.6609520136082603	0.12087792642558846	0.7248960395713897	0.5458323354174303	0.20296283213776714	0.6735771718411753	0.5400780961637073	0.20337890175809115	0.6334181077920582	0.5480532722997937	0.18911071837373689	0.6217085612848302	0.5634818254350685	
3	0.0508474576271186	0.3222375886033961	0.6538105160841539	0.7136126598367627	0.317855771715651	0.1907595106131106	0.7432642744809657	0.3179825447074059	-0.20736350271043555	0.7474183387544292	0.2903695703347504	-0.2424450626350519	0.5932921463860557	0.3579220906555687	-0.22914081352957166	0.597664288992417	0.2867165905543518	-0.3057603429585334	0.8550917688719223	0.09674610286967174	0.6452849776714905	0.7423211612209876	0.0972457316729808	0.1917291899399349	0.7579934042219193	0.09932979410581892	-0.19286718252208976	0.7648283184226226	0.10585775720150849	-0.20029943414087822	0.5690123828888365	0.054641017446320786	-0.23020715499936414	0.6357580611456931	0.10878770363676535	-0.2515995790453119	0.8210347915801856	0.22870713142319435	1.2203327483674584	0.762030234560681	0.24948365207502027	1.4596637974693845	0.7057025400149061	0.2338039825948672	1.34205126355317	0.6273558195654722	0.3929889798823649	1.1477099524727399	0.7217933294443368	0.4516171571386559	0.8859440950362215	0.6505310036387955	0.29795537856057175	0.711063370116198	0.552939958016092	0.16205480124198207	0.6594815205650979	0.5466951604555117	0.15177868896618263	0.6289620340395171	0.5567083259671399	0.19816862242834415	0.6211805412006881	0.5455800474776495	0.06811719335012727	1.1536899670240683	0.7316633225326878	0.016639330710008712	0.8884786044779583	0.6604265500991469	0.12088909575720266	0.7251633281673568	0.5458622242526403	0.2033411157303647	0.67646860771	0.5375632021607384	0.2042011782865227	0.6345617032227934	0.5460433312780506	0.19035094444134754	0.6229948838968399	0.5637476388699953	
